<svg version="1.2" xmlns="http://www.w3.org/2000/svg" viewBox="0 0 24 24" width="24" height="24"><defs><clipPath clipPathUnits="userSpaceOnUse" id="cp1"><path d="m9 7.25v-0.05c0-1.12 0-1.68 0.22-2.11q0.3-0.57 0.87-0.87c0.43-0.22 0.99-0.22 2.11-0.22h4.6c1.12 0 1.68 0 2.11 0.22q0.57 0.3 0.87 0.87c0.22 0.43 0.22 0.99 0.22 2.11v9.6c0 1.12 0 1.68-0.22 2.11-0.19 0.37-0.5 0.68-0.87 0.87-0.43 0.22-0.99 0.22-2.11 0.22h-4.6c-1.12 0-1.68 0-2.11-0.22q-0.57-0.3-0.87-0.87c-0.22-0.43-0.22-0.99-0.22-2.11v-0.05m6-4.75l-3-3m3 3h-11m8 3l3-3"/></clipPath></defs><style>.a{fill:none;stroke:#000;stroke-linecap:round;stroke-linejoin:round;stroke-width:2}</style><g clip-path="url(#cp1)"><path class="a" d="m9 7.2c0-1.1 0-1.7 0.2-2.1q0.3-0.6 0.9-0.9c0.4-0.2 1-0.2 2.1-0.2h4.6c1.1 0 1.7 0 2.1 0.2q0.6 0.3 0.9 0.9c0.2 0.4 0.2 1 0.2 2.1v9.6c0 1.1 0 1.7-0.2 2.1-0.2 0.4-0.5 0.7-0.9 0.9-0.4 0.2-1 0.2-2.1 0.2h-4.6c-1.1 0-1.7 0-2.1-0.2q-0.6-0.3-0.9-0.9c-0.2-0.4-0.2-1-0.2-2.1m6-4.8l-3-3m3 3h-11m8 3l3-3"/><rect width="24" height="24" style="fill:#971e1e"/></g></svg>